<svg id="Capa_1" data-name="Capa 1" xmlns="http://www.w3.org/2000/svg" xmlns:xlink="http://www.w3.org/1999/xlink" viewBox="0 0 415.63 433.55"><defs><clipPath id="clip-path" transform="translate(-73.18 -109.33)"><rect x="-166.51" y="-169" width="898.87" height="1225.42" fill="none"/></clipPath></defs><path d="M361.92,150.5" transform="translate(-73.18 -109.33)" fill="#fff"/><g id="Capa_2" data-name="Capa 2"><g id="Capa_3" data-name="Capa 3"><path d="M-356.84,480.12" transform="translate(-73.18 -109.33)" fill="#e83b40"/><path d="M-146.3,369.79" transform="translate(-73.18 -109.33)" fill="#e83b40"/><path d="M-118,391.75" transform="translate(-73.18 -109.33)" fill="#e83b40"/><path d="M-386,391.56" transform="translate(-73.18 -109.33)" fill="#e83b40"/><path d="M162.64,371.42" transform="translate(-73.18 -109.33)" fill="#e83b40"/><path d="M-338.84,443.67" transform="translate(-73.18 -109.33)" fill="#fff"/><path d="M-146.51,363.66" transform="translate(-73.18 -109.33)" fill="#fff"/><path d="M-368.72,547.8" transform="translate(-73.18 -109.33)" fill="#c0181a"/></g></g><rect x="158.4" y="127.57" width="11" height="11.33" fill="#e83b40"/><path d="M137.08,185" transform="translate(-73.18 -109.33)" fill="#fff"/><rect x="197.73" y="115.31" width="48.7" height="14.56" fill="#fff"/><polyline points="197.73 115.31 189.68 114.21 179.1 123.41 197.73 129.88" fill="#fff"/><ellipse cx="198.6" cy="198.87" rx="155.77" ry="167.43" fill="#fff"/><path d="M232.22,461.59a187,187,0,0,0,44.53-58.3,194.48,194.48,0,0,0,14.53-40.54l40.28.81V352.7H293.87l-6.18-12.13-8.33-18.15h33.1v-9.56H275.61q-1.91-6.27-3.79-12.55l-3.33-14.12h12.87L348,286c0-3.08,0-6.17.05-9.25l-77.9-.07,2.37-29.51,47.08.17c0-2.74-.05-5.47-.07-8.2l-49.33-.28c7-5.23,14.37-10.52,22.27-15.79,9.62-6.41,19-12.14,27.92-17.25,7.21-2.51,30.37-9.45,54,2.46C399,220.61,419.45,251,415,274.68c-.57,4.57-1.14,6.18-.93,10s1.07,7.94,7.19,20.94c5.13,10.89,7,13.21,5.86,15.62-2.19,4.51-11.18,1-13.74,5.81s4.64,12.2,1.62,17.2c-1.22,2-3.5,2.8-5.37,3.14,2.75,3.34,2.6,8.29.27,10.82a5.78,5.78,0,0,1-7,1,16.59,16.59,0,0,0-1.13,5.61c-.08,3.64,1.16,4.89,1.16,8,0,2.65-.91,6.65-3.25,8.41-.79.59-1.65.86-12.41-1.62a36.32,36.32,0,0,0-11.65-1.14c-4.06-.89-10.21-1.54-15.58,1.54-6.4,3.67-8.52,10.82-9.36,13.2-2.74,7.73-11,18.83-82.35,52.13C259.43,449.51,247.1,455.15,232.22,461.59Z" transform="translate(-73.18 -109.33)" fill="#ff0006"/><path d="M273.88,475.6q.58-16.38,1.16-32.75l-40.9,21.07v6.77A145.63,145.63,0,0,0,273.88,475.6Z" transform="translate(-73.18 -109.33)" fill="none"/><path d="M280.82,475.33l.3-30.17,42.64-26.54q.58,23.49,1.16,47a146.13,146.13,0,0,1-22.31,6.72A144.17,144.17,0,0,1,280.82,475.33Z" transform="translate(-73.18 -109.33)" fill="none"/><path d="M329.89,463.58l.17-46.16,44.63-24.73.27,40.94a156.16,156.16,0,0,1-21.53,17.18A151.21,151.21,0,0,1,329.89,463.58Z" transform="translate(-73.18 -109.33)" fill="none"/><path d="M235.73,522.42" transform="translate(-73.18 -109.33)" fill="#fff"/><path d="M293.88,352.64l-11.18,1.9-27.34,28.88h-19.1V368.91l13.1.51,27.37-28.13,10.56-1.61Z" transform="translate(-73.18 -109.33)" fill="#ff0006"/><path d="M288.1,316.21" transform="translate(-73.18 -109.33)" fill="#fff"/><polygon points="240.06 204.89 165.06 204.89 159.4 189.14 240.06 189.36 240.06 204.89" fill="#ff0006"/><polygon points="159.4 189.14 144.86 207.63 151.06 224.17 165.06 204.89 159.4 189.14" fill="#ff0006"/><polygon points="151.06 224.17 115.56 224.17 115.56 209.76 144.86 207.63 151.06 224.17" fill="#ff0006"/><rect x="163.35" y="153.05" width="111.57" height="14.52" fill="#ff0006"/><path d="M243.85,324.42" transform="translate(-73.18 -109.33)" fill="#fff"/><path d="M303.86,353.87" transform="translate(-73.18 -109.33)" fill="#fff"/><path d="M298,406.91" transform="translate(-73.18 -109.33)" fill="#fff"/><path d="M274.76,324.91" transform="translate(-73.18 -109.33)" fill="#fff"/><path d="M237.92,220.9l-30.15-1.13V206.51h35.84Z" transform="translate(-73.18 -109.33)" fill="#ff0006"/><path d="M269.36,409.54" transform="translate(-73.18 -109.33)" fill="#fff"/><path d="M249.21,229.53l-11.39-9.11,5.72-13.89L261.23,222Z" transform="translate(-73.18 -109.33)" fill="#ff0006"/><rect x="125.85" y="249.01" width="38.04" height="38.89" fill="#ff0006"/><rect x="137.78" y="260.6" width="14.18" height="15.69" fill="#fff"/><rect x="77.53" y="196.46" width="38.04" height="38.89" fill="#ff0006"/><rect x="89.46" y="208.06" width="14.18" height="15.69" fill="#fff"/><rect x="96.55" y="84.93" width="38.04" height="38.89" fill="#ff0006"/><rect x="111.17" y="96.55" width="14.18" height="15.69" fill="#fff"/><rect x="125.85" y="140.7" width="38.04" height="38.89" fill="#ff0006"/><rect x="137.78" y="152.3" width="14.18" height="15.69" fill="#fff"/><g clip-path="url(#clip-path)"><g clip-path="url(#clip-path)"><path d="M82.16,512.17v30.25H73.22v-7.55c0-9.67-.14-19.33.12-29,0-1.93,1.3-5.16,2.61-5.46a9.78,9.78,0,0,1,7.4,1.46c9.29,7.93,18.19,16.27,27.18,24.45,1.6,1.46,3.26,2.83,5.57,4.84V500.77h9.06v18.65c0,6,.17,12-.11,18-.07,1.86-1,4.93-2.17,5.24a10.23,10.23,0,0,1-7.17-1.05c-3.23-2-5.85-4.86-8.7-7.38l-24.94-22" transform="translate(-73.18 -109.33)" fill="#f9f2f2"/><path d="M343.05,500.54v7.77h-12c-3.56-.07-5.3,1.07-5.27,4.81s1.94,4.71,5.44,4.68c7.32,0,14.66-.07,22,0,7.73.12,11.27,3.05,11.73,9.46.75,10.31-1.26,14.34-9.68,14.85-12.59.74-25.29.19-38.16.19v-7.7H350.8c3.65,0,5.5-1.12,5.39-4.74-.08-3.19-1.42-4.84-5-4.81-7.16,0-14.35.19-21.51,0-4.53-.13-9.81,0-11.7-4.82-2-5.21-2.41-11,1-15.86a11.27,11.27,0,0,1,7.37-3.7c5.56-.33,11.14-.38,16.7-.16" transform="translate(-73.18 -109.33)" fill="#f9f2f2"/><path d="M380,541.86c-3.4-.7-5.6-1.45-7.32-3.27a11.15,11.15,0,0,1-2.64-7.28,98.08,98.08,0,0,1,0-10.57c.31-7,4-10.83,11.47-11.15s15.31-.3,22.94,0c6.79.28,10.24,3.18,11.05,9.46a54.31,54.31,0,0,1,0,13.72,10.13,10.13,0,0,1-2.49,6.12c-2,2.07-4.65,2.58-7.28,2.92-14.45,2.15-23.3.48-25.67,0m12.9-25c-13.41,0-14.26.87-13.3,12.7.25,3.09,1.63,5,4.93,5.14,5.65.16,11.33.13,17,0a4.47,4.47,0,0,0,4.78-4.11,3.64,3.64,0,0,0,0-.66c.39-12.07.67-13.29-12.43-13.1h-1" transform="translate(-73.18 -109.33)" fill="#f9f2f2"/><path d="M289.51,509.64c3.91,0,7.87-.29,11.73,0,6.4.58,9.8,3.29,10.57,9.07a66.44,66.44,0,0,1,0,14.65,8.91,8.91,0,0,1-9.06,8.3,254.3,254.3,0,0,1-26.77,0c-5.57-.32-8.38-3.33-9.06-8.73a61.43,61.43,0,0,1-.21-13.28c.59-6.32,3.94-9.18,10.57-10.06a14.84,14.84,0,0,1,2-.16h10.26Zm.1,7c-13.75,0-14.61.85-13.89,12.37.23,3.5,1.81,5.67,5.45,5.83,5.35.24,10.74.23,16.08,0,3.34-.12,5.12-2,5.64-5.27,1.63-10.58-.43-12.94-11.81-13h-1.51" transform="translate(-73.18 -109.33)" fill="#f9f2f2"/><path d="M160.28,536v6.25c-6.52-.51-12,.14-18.25-.85-4.67-.74-7.11-4.2-7.34-8.63a121.29,121.29,0,0,1,0-13.75c.36-5.68,3-8.74,9-9.09,9.57-.52,19.21-.5,28.78-.13,5.31.22,7.68,3.13,8.11,8.17.19,2.28,0,4.58,0,6.88v4.09H144.46c-.26.85-1.22,4.25.59,6a5.59,5.59,0,0,0,4,1h11.13m10.39-12.8c1-6.89.73-7.28-6-7.28H150.36c-6,0-6.9,1.12-6.36,7.28Z" transform="translate(-73.18 -109.33)" fill="#f9f2f2"/><path d="M186,509.55h9.35c0,6-.09,11.73,0,17.47.12,6.49,1.51,7.84,8.32,8,3.75,0,7.55.12,11.25,0,5.72-.2,7.19-1.64,7.25-7V509.54h8.91c0,7.86.33,15.5-.11,23.08-.33,5.71-3.43,8.73-9.65,9.14a193.45,193.45,0,0,1-24.79,0c-6.8-.43-10.09-3.75-10.47-10.09-.43-7.27-.1-14.65-.1-22.19" transform="translate(-73.18 -109.33)" fill="#f9f2f2"/><path d="M444.07,498.5v6h-6.52c-4.12,0-5.32.22-5.89,1.05-.77,1.1-.08,2.79.41,3.74h12.08v7.13H431.36v26h-9.52c-.21-4.6-.4-11.12-.39-18.92,0-16.45,1-19.61,3.32-21.94,4.91-4.93,13.91-4.1,19.27-3.05" transform="translate(-73.18 -109.33)" fill="#f9f2f2"/><path d="M461.89,516.42v26h-9.45l.09-26.62-5.14.09v-6.35l4.91-.29c0-3.16-.16-6.33-.24-9.51h9.71V509H472.7v7.28Z" transform="translate(-73.18 -109.33)" fill="#f9f2f2"/><path d="M247.62,542.5h-8.68c0-8.34-.51-16.73.2-25,.4-4.72,4.84-7.19,9.75-7.69,3.85-.38,7.76-.07,12-.07v6.32a15.17,15.17,0,0,0-4.88-.5c-1.18.09-4.82.32-6.88,2.4s-1.51,4.89-1.51,9v15.56" transform="translate(-73.18 -109.33)" fill="#f9f2f2"/></g></g><path d="M241.24,460.52a105.06,105.06,0,0,1-23.67-1.89c-3.54-.68-40.46-8.26-52.94-31a57.58,57.58,0,0,1-6.15-19.09,51.25,51.25,0,0,1-.07-9.83c.3-3.73,2.1-21.27,13.89-47.74a214.28,214.28,0,0,1,11.18-21.34,211.23,211.23,0,0,1,12.31-18.35c30.16-40.34,70-68.74,77.4-73.92,56.29-39.6,110.39-70.57,149.48-91.47l-.44,34.1,59.91-59.6-81.88-7.47,18.88,25.88c-27,10.67-48.75,20.77-63.67,28,0,0-141,68.49-208.18,154.61-12.54,16.08-22.29,34.64-25,39.84-13.31,25.5-15.09,38.11-15.59,42.19-1.16,9.55-3,25.07,4.41,39.16,7.65,14.47,20.92,19.46,35.58,25,7.17,2.7,16.92,5.51,36.47,7.11A292.39,292.39,0,0,0,241,473.57Z" transform="translate(-73.18 -109.33)" fill="#aa0c10" stroke="#f4eaea" stroke-miterlimit="10" stroke-width="6"/></svg>