<svg id="Capa_1" data-name="Capa 1" xmlns="http://www.w3.org/2000/svg" xmlns:xlink="http://www.w3.org/1999/xlink" viewBox="0 0 1976.1 816.6"><defs><clipPath id="clip-path"><rect x="571.4" y="-125.6" width="898.9" height="1225.4" fill="none"/></clipPath></defs><rect x="969.5" y="280.2" width="11" height="11.3" fill="#e83b40"/><rect x="1008.8" y="268.1" width="48.7" height="14.6" fill="#fff"/><polyline points="1008.8 268.1 1000.8 267 990.2 276.1 1008.8 282.6" fill="#fff"/><ellipse cx="1009.7" cy="351.6" rx="155.8" ry="167.4" fill="#fff"/><path d="M970.2,504.9a186.66,186.66,0,0,0,44.5-58.3,193.65,193.65,0,0,0,14.5-40.5l40.3.8V396h-37.7l-6.2-12.1-8.3-18.1h33.1v-9.6h-36.8c-1.3-4.2-2.5-8.4-3.8-12.5l-3.3-14.1h12.9l66.7-.2v-9.2l-77.9-.1,2.4-29.5,47.1.2c0-2.7-.1-5.5-.1-8.2l-49.3-.3c7-5.2,14.4-10.5,22.3-15.8,9.6-6.4,19-12.1,27.9-17.2,7.2-2.5,30.4-9.4,54,2.5,24.6,12.4,45,42.8,40.6,66.4-.6,4.6-1.1,6.2-.9,10s1.1,7.9,7.2,20.9c5.1,10.9,7,13.2,5.9,15.6-2.2,4.5-11.2,1-13.7,5.8s4.6,12.2,1.6,17.2c-1.2,2-3.5,2.8-5.4,3.1,2.8,3.3,2.6,8.3.3,10.8a5.75,5.75,0,0,1-7,1,15.51,15.51,0,0,0-1.1,5.6c-.1,3.6,1.2,4.9,1.2,8,0,2.6-.9,6.6-3.2,8.4-.8.6-1.7.9-12.4-1.6a35.3,35.3,0,0,0-11.7-1.1l-.6.1c-2.8.3-6.9.9-10.2,4a17.62,17.62,0,0,0-4.4,8.3c-1.5,7.4-9.4,12-39.6,27.9-6.7,3.6-13.3,7-23.1,12-8.7,4.4-17.8,9.2-29.4,14.6C991.4,495.6,978.8,501.1,970.2,504.9Z" fill="#dd1414"/><path d="M1014.7,519c.4-5.3.7-10.9.9-16.6.2-5,.2-9.9.2-14.6-13.8,5.6-27.6,11.1-41.3,16.7l-.6,9.9A168.54,168.54,0,0,0,1014.7,519Z" fill="#dd1414"/><path d="M1021.6,518.5c-.1-4.2-.3-8.5-.5-12.7-.3-6.8-.6-13.5-1-20.1l31.5-15.9c.2,5.9.6,12,1.1,18.3.6,8.4,1.5,16.5,2.5,24.3-4.5,1.3-8.6,2.3-12.2,3.1-3.4.7-6.5,1.2-8.9,1.6C1029.4,517.8,1025.2,518.2,1021.6,518.5Z" fill="#dd1414"/><path d="M1031.8,396.1l-11.2,1.9-27.3,28.9H974.2V412.4l13.1.5,27.4-28.1,10.6-1.6C1027.4,387.4,1029.6,391.6,1031.8,396.1Z" fill="#dd1414"/><polygon points="1051.2 357.6 976.2 357.6 970.5 341.9 1051.2 342.1 1051.2 357.6" fill="#dd1414"/><polygon points="970.5 341.9 956 360.4 962.2 376.9 976.2 357.6 970.5 341.9" fill="#dd1414"/><polygon points="962.2 376.9 926.7 376.9 926.7 362.5 956 360.4 962.2 376.9" fill="#dd1414"/><rect x="974.5" y="305.8" width="111.6" height="14.5" fill="#dd1414"/><path d="M976.3,264.2l-27.8-1.1V249.8h33.1Z" fill="#dd1414"/><path d="M987.1,272.9l-11.4-9.1,5.7-13.9,17.7,15.5Z" fill="#dd1414"/><rect x="937" y="401.8" width="38" height="38.9" fill="#dd1414"/><rect x="948.9" y="413.2" width="14.2" height="15.7" fill="#fff"/><rect x="888.6" y="349.1" width="38" height="38.9" fill="#dd1414"/><rect x="900.6" y="360.8" width="14.2" height="15.7" fill="#fff"/><rect x="910.4" y="237.6" width="38" height="38.9" fill="#dd1414"/><rect x="922.3" y="249.2" width="14.2" height="15.7" fill="#fff"/><rect x="937" y="293.4" width="38" height="38.9" fill="#dd1414"/><rect x="948.9" y="305" width="14.2" height="15.7" fill="#fff"/><g clip-path="url(#clip-path)"><g clip-path="url(#clip-path)"><path d="M820.1,555.6v30.2h-8.9v-7.5c0-9.7-.1-19.3.1-29,0-1.9,1.3-5.2,2.6-5.5a9.7,9.7,0,0,1,7.4,1.5c9.3,7.9,18.2,16.3,27.2,24.5,1.6,1.5,3.3,2.8,5.6,4.8V544.2h9.1v18.6c0,6,.2,12-.1,18-.1,1.9-1,4.9-2.2,5.2a10.61,10.61,0,0,1-7.2-1c-3.2-2-5.8-4.9-8.7-7.4l-24.9-22" fill="#f40808"/><path d="M1081,544v7.8h-12c-3.6-.1-5.3,1.1-5.3,4.8s1.9,4.7,5.4,4.7c7.3,0,14.7-.1,22,0,7.7.1,11.3,3,11.7,9.5.8,10.3-1.3,14.3-9.7,14.9-12.6.7-25.3.2-38.2.2v-7.7h33.7c3.6,0,5.5-1.1,5.4-4.7-.1-3.2-1.4-4.8-5-4.8-7.2,0-14.4.2-21.5,0-4.5-.1-9.8,0-11.7-4.8-2-5.2-2.4-11,1-15.9a11.48,11.48,0,0,1,7.4-3.7,118.07,118.07,0,0,1,16.8-.3"/><path d="M1117.9,585.3c-3.4-.7-5.6-1.5-7.3-3.3a10.73,10.73,0,0,1-2.6-7.3,93.7,93.7,0,0,1,0-10.6c.3-7,4-10.8,11.5-11.1s15.3-.3,22.9,0c6.8.3,10.2,3.2,11.1,9.5a52.36,52.36,0,0,1,0,13.7,9.8,9.8,0,0,1-2.5,6.1c-2,2.1-4.7,2.6-7.3,2.9-14.5,2.2-23.4.5-25.8.1m13-25.1c-13.4,0-14.3.9-13.3,12.7.2,3.1,1.6,5,4.9,5.1,5.7.2,11.3.1,17,0a4.48,4.48,0,0,0,4.8-4.1v-.7c.4-12.1.7-13.3-12.4-13.1l-1,.1"/><path d="M1027.4,553.1c3.9,0,7.9-.3,11.7,0,6.4.6,9.8,3.3,10.6,9.1a71.24,71.24,0,0,1,0,14.6,8.92,8.92,0,0,1-9.1,8.3,239.6,239.6,0,0,1-26.8,0c-5.6-.3-8.4-3.3-9.1-8.7a65.71,65.71,0,0,1-.2-13.3c.6-6.3,3.9-9.2,10.6-10.1.7-.1,1.3-.1,2-.2h10.3Zm.2,7c-13.8,0-14.6.8-13.9,12.4.2,3.5,1.8,5.7,5.5,5.8,5.3.2,10.7.2,16.1,0,3.3-.1,5.1-2,5.6-5.3,1.6-10.6-.4-12.9-11.8-13l-1.5.1" fill="#f40808"/><path d="M898.2,579.4v6.2c-6.5-.5-12,.1-18.2-.9-4.7-.7-7.1-4.2-7.3-8.6a105.91,105.91,0,0,1,0-13.8c.4-5.7,3-8.7,9-9.1,9.6-.5,19.2-.5,28.8-.1,5.3.2,7.7,3.1,8.1,8.2.2,2.3,0,4.6,0,6.9v4.1H882.5c-.3.8-1.2,4.2.6,6a5.75,5.75,0,0,0,4,1l11.1.1m10.3-12.9c1-6.9.7-7.3-6-7.3H888.3c-6,0-6.9,1.1-6.4,7.3Z" fill="#f40808"/><path d="M923.9,553h9.4c0,6-.1,11.7,0,17.5.1,6.5,1.5,7.8,8.3,8,3.8,0,7.5.1,11.2,0,5.7-.2,7.2-1.6,7.2-7V553h8.9c0,7.9.3,15.5-.1,23.1-.3,5.7-3.4,8.7-9.6,9.1a205.2,205.2,0,0,1-24.8,0c-6.8-.4-10.1-3.8-10.5-10.1-.3-7.3,0-14.7,0-22.1" fill="#f40808"/><path d="M1182,541.9v6h-6.5c-4.1,0-5.3.2-5.9,1-.8,1.1-.1,2.8.4,3.7h12.1v7.1h-12.8v26h-9.5c-.2-4.6-.4-11.1-.4-18.9,0-16.5,1-19.6,3.3-21.9,4.9-4.9,13.9-4,19.3-3"/><path d="M1199.8,559.8v26h-9.5l.1-26.6-5.1.1v-6.4l4.9-.3c0-3.2-.2-6.3-.2-9.5h9.7v9.3h10.9v7.3Z"/><path d="M985.6,585.9h-8.7c0-8.3-.5-16.7.2-25,.4-4.7,4.8-7.2,9.8-7.7,3.9-.4,7.8-.1,12-.1v6.3a16,16,0,0,0-4.9-.5c-1.2.1-4.8.3-6.9,2.4s-1.5,4.9-1.5,9v15.6" fill="#f40808"/></g></g><path d="M971.4,498.5a104.89,104.89,0,0,1-23.7-1.9c-3.5-.7-40.5-8.3-52.9-31a56.2,56.2,0,0,1-6.1-19.1,53.56,53.56,0,0,1-.1-9.8c.3-3.7,2.1-21.3,13.9-47.7a216,216,0,0,1,11.2-21.3c3.8-6.3,7.9-12.5,12.3-18.4,30.2-40.3,70-68.7,77.4-73.9,56.3-39.6,110.4-70.6,149.5-91.5l-.4,34.1,59.9-59.6-81.9-7.5,18.9,25.9c-27,10.7-48.8,20.8-63.7,28,0,0-141,68.5-208.2,154.6-12.5,16.1-22.3,34.6-25,39.8-13.3,25.5-15.1,38.1-15.6,42.2-1.2,9.5-3,25.1,4.4,39.2,7.6,14.5,20.9,19.5,35.6,25,7.2,2.7,16.9,5.5,36.5,7.1a301.68,301.68,0,0,0,57.8-1.1Z" fill="#aa0c10" stroke="#f9f9f9" stroke-miterlimit="10" stroke-width="5"/><path d="M1061,510.1c-.2-8.7-.6-17.5-1.1-26.5-.3-5.8-.7-11.5-1.1-17.2,4-1.9,7.4-3.5,9.8-4.7,9.5-4.6,12.5-6.2,14.2-7.2,3.2-1.8,5.8-3.3,7.5-4.3a169.26,169.26,0,0,0,1,19.4,182.07,182.07,0,0,0,4.2,23.5c-2.2,1.5-4.9,3.1-7.9,4.8-2.8,1.6-5.9,3.3-9.2,4.9A141.89,141.89,0,0,1,1061,510.1Z" fill="#dd1414"/></svg>